<?xml version="1.0" encoding="utf-8"?>
<!-- Generator: Adobe Illustrator 23.0.0, SVG Export Plug-In . SVG Version: 6.00 Build 0)  -->
<svg version="1.1" id="Layer_1" xmlns="http://www.w3.org/2000/svg" xmlns:xlink="http://www.w3.org/1999/xlink" x="0px" y="0px"
	 viewBox="0 0 388.2 159.9" style="enable-background:new 0 0 388.2 159.9;" xml:space="preserve">
<style type="text/css">
	.st0{fill:#EE2B35;}
	.st1{fill:none;stroke:#EE2B35;stroke-width:0.5386;stroke-miterlimit:10;}
	.st2{fill:#A5ADBD;}
	.st3{fill:none;stroke:#A5ADBD;stroke-width:1.5;stroke-miterlimit:10;}
</style>
<g>
	<g>
		<path class="st0" d="M259.7,36.1c-22.7,0-41,18.4-41,41c0,22.7,18.4,41,41,41s41-18.4,41-41C300.7,54.5,282.3,36.1,259.7,36.1z
			 M259.7,107.1c-16.6,0-30-13.5-30-30s13.5-30,30-30s30,13.5,30,30S276.2,107.1,259.7,107.1z"/>
		<g>
			<path class="st0" d="M282,54.8c-6-6-13.9-9.3-22.4-9.3s-16.4,3.3-22.4,9.3c-6,6-9.3,13.9-9.3,22.4s3.3,16.4,9.3,22.4
				c6,6,13.9,9.3,22.4,9.3s16.4-3.3,22.4-9.3c6-6,9.3-13.9,9.3-22.4C291.3,68.7,288,60.7,282,54.8z M269.7,48.8
				c4,1.4,7.7,3.7,10.8,6.6l0,0l-0.1,0c-1.2,0.4-2.2,0.8-3.2,1.1l0,0l0,0C275.2,53.6,272.6,51,269.7,48.8l-0.3-0.1L269.7,48.8z
				 M238.9,55.4c3.1-3,6.7-5.2,10.7-6.6l0.3-0.1l-0.2,0.1c-3,2.2-5.5,4.8-7.5,7.7l0,0l0,0C241.2,56.3,240.1,55.9,238.9,55.4
				L238.9,55.4L238.9,55.4z M237.7,97.5L237.7,97.5c-4.7-5.1-7.5-11.7-8-18.6h6.9c0.2,6.7,1.7,12.5,4.5,17.3l0,0l0,0
				C240,96.7,238.9,97,237.7,97.5L237.7,97.5z M248.7,105.1c-3.6-1.4-6.9-3.5-9.8-6.3l0,0l0.1,0c1.1-0.4,2-0.7,3-1l0,0l0,0
				C243.8,100.5,246.1,103,248.7,105.1l0.3,0.1L248.7,105.1z M280.5,98.8c-2.8,2.7-6.1,4.8-9.8,6.3l-0.3,0.1l0.3-0.2
				c2.7-2,5-4.5,6.8-7.3l0,0l0,0C278.4,98,279.3,98.3,280.5,98.8L280.5,98.8L280.5,98.8z M281.7,97.5L281.7,97.5L281.7,97.5
				c-1.3-0.5-2.3-0.8-3.4-1.2l0,0l0,0c2.7-4.8,4.2-10.6,4.5-17.3h6.9C289.3,85.8,286.4,92.4,281.7,97.5z M282.8,77.3l0-0.2l0-0.8
				c-0.1-3.9-0.6-7.5-1.6-10.8c0,1.4-0.2,3.2-0.5,5.3c0.3,1.8,0.4,3.6,0.4,5.5l0,0.4v0.6h-1.7c-0.1,0.5-0.3,1.1-0.4,1.6h2.1
				c-0.2,6.6-1.7,12.2-4.4,16.9l0,0l0,0c-1.8-0.5-3.7-1-5.5-1.4c-0.4,0.5-0.8,0.9-1.2,1.4c1.9,0.4,3.9,0.8,5.8,1.4l0.1,0l0,0
				c-3.4,5.1-7.8,7.9-10.8,9.4c-1,0.2-2,0.3-3,0.4l-0.1,0l0-0.1c0.8-1.5,1.9-3.7,3-6.3c-0.8,0.6-1.6,1.2-2.5,1.8
				c-0.9,1.9-1.7,3.4-2.4,4.6l0,0c0,0-0.3,0-0.4,0c-0.1,0-0.4,0-0.4,0l0,0c-0.7-1.2-1.5-2.8-2.4-4.6c-0.9-0.6-1.7-1.2-2.5-1.8
				c1.1,2.6,2.2,4.8,3,6.3l0,0.1l-0.1,0c-0.9-0.1-1.9-0.2-2.8-0.3c-3.1-1.5-7.6-4.3-11-9.5l0,0l0.1,0c1.9-0.6,3.8-1,5.7-1.4
				c-0.4-0.5-0.8-0.9-1.2-1.4c-1.8,0.4-3.6,0.8-5.4,1.4l0,0l0,0c-2.7-4.7-4.2-10.3-4.5-16.9h2.2c-0.2-0.6-0.3-1.1-0.4-1.6h-1.8
				l0-0.2l0-0.8c0-2,0.2-4,0.5-5.9c-0.3-2.1-0.4-4-0.4-5.4c-1,3.4-1.6,7.2-1.7,11.2l0,0.4v0.6h-6.9l0-0.2l0-0.8
				c0.2-7.3,3-14.2,8-19.6l0,0l0,0c1.3,0.5,2.4,0.9,3.6,1.3l0,0l0,0c-0.9,1.5-1.6,3-2.2,4.7c0.5-0.1,1.1-0.2,1.8-0.3
				c0.6-1.4,1.2-2.7,2-4l0,0l0,0c2.1,0.6,4.2,1.1,6.3,1.5c0.9-0.4,1.8-0.7,2.6-1.2c-2.7-0.4-5.4-1-8-1.7l-0.1,0l0,0
				c3.6-5.2,8.1-8.1,11.3-9.6c0.7-0.1,1.5-0.2,2.3-0.3l0.1,0l0,0.1c-1.3,2.4-3.2,6.3-4.8,11.2c0.7-0.4,1.5-0.9,2.2-1.4
				c1.6-4.4,3.3-7.8,4.6-9.9l0,0c0,0,0.3,0,0.4,0c0.1,0,0.4,0,0.4,0l0,0c1.2,2.2,3,5.6,4.6,9.9c0.7,0.5,1.4,1,2.2,1.4
				c-1.6-4.9-3.5-8.8-4.8-11.2l0-0.1l0.1,0c0.9,0.1,1.6,0.2,2.4,0.3c3.2,1.5,7.7,4.4,11.3,9.6l0,0l-0.1,0c-2.7,0.8-5.4,1.4-8.1,1.8
				c0.8,0.4,1.7,0.8,2.6,1.2c2.1-0.4,4.3-0.9,6.4-1.5l0,0l0,0c0.8,1.3,1.4,2.6,2,4c0.6,0.1,1.2,0.2,1.7,0.3
				c-0.6-1.6-1.4-3.2-2.2-4.7l0,0l0,0c1.1-0.4,2.3-0.8,3.6-1.3l0,0l0,0c5,5.3,7.8,12.3,8,19.6l0,0.4v0.6H282.8z"/>
			<g>
				<g>
					<g>
						<path class="st0" d="M278.9,64.5c-3.1-0.3-8.5-1.6-12.7-3.8c-2.7-1.5-5.1-3.9-6.5-5.7c-1.3,1.6-3.8,4.3-6.5,5.7
							c-4.6,2.3-9.6,3.5-12.6,3.8c0,0.3,0,0.7,0,1c0,5.8,1.3,25.6,18.5,35.6l0.6,0.3l0.4-0.2c17.3-9.6,18.8-29.9,18.8-35.7
							L278.9,64.5z M274.2,80.5c-2.9,8.2-7.7,14.4-14.5,18.3c-6.6-4-11.5-10-14.3-17.9c-2.3-6.3-2.6-12.1-2.7-14.6
							c2.5-0.4,7-1.6,11.4-3.8c1.8-0.9,3.9-2.8,5.5-4.4c1.6,1.6,3.6,3.4,5.5,4.4c4.4,2.4,9.4,3.5,11.6,3.8
							C276.7,68.8,276.3,74.3,274.2,80.5z"/>
						<path class="st0" d="M264.8,63.8c-1.8-0.9-3.6-2.6-5.1-4.1c-1.6,1.5-3.4,3.2-5.1,4.1c-4,2-8.2,3.1-10.5,3.5
							c0,2.3,0.4,7.6,2.5,13.4c2.6,7.3,7,12.8,13.1,16.5c6.2-3.7,10.7-9.3,13.3-16.9c2-5.7,2.3-10.8,2.4-13
							C273.4,67.1,268.8,66,264.8,63.8z M261.9,78.7l0,9.1h-4.4v-9.1c-1.6-0.8-2.6-2.5-2.6-4.3c0-2.6,2.1-4.8,4.8-4.8
							c2.6,0,4.8,2.1,4.8,4.8C264.5,76.2,263.4,77.9,261.9,78.7z"/>
					</g>
					<g>
						<path class="st1" d="M258.8,86.6v-8.8l-0.6-0.3c-1.2-0.6-2-1.8-2-3.2c0-2,1.6-3.5,3.5-3.5c2,0,3.5,1.6,3.5,3.5
							c0,1.4-0.8,2.6-2,3.2l-0.6,0.3v8.8H258.8z"/>
					</g>
				</g>
			</g>
		</g>
	</g>
	<g>
		<path class="st0" d="M206.2,6.6v87.6c0,8.7,4.3,11.6,8.5,11.6h4v12.3h-5.4c-12.2,0-20.2-6.9-20.2-22.9V6.6H206.2 M348,52.2
			c-17.9,0-28,14.2-28,27c0,17.6,13.8,28.2,27.6,28.2c15.1,0,27.4-12.2,27.4-27.4C375,64.6,362.4,52.2,348,52.2z M375,41.7h13.2
			v65.9c0,28.2-13.5,42.8-43.1,42.8c-13.5,0-25.4-5-35.7-16.4l10.6-8.4c8.1,10.1,17.5,13.2,25.4,13.2c20.5,0,29.6-10.3,29.6-27.3
			v-5.4h-0.3c-7.2,8.7-14.7,12.9-29.5,12.9c-25.7,0-39.3-22-39.3-39.8c0-22.2,18.2-39.3,39.8-39.3c11.3,0,22.7,4.7,29,13.8h0.3
			L375,41.7"/>
	</g>
</g>
<g>
	<g>
		<path class="st2" d="M3.8,19.7c0-3.5,1.1-6.3,3.2-8.5c2.1-2.2,5-3.2,8.6-3.2c3.7,0,6.6,1.1,8.6,3.2c2.1,2.2,3.1,5,3.1,8.5
			c0,3.5-1,6.3-3.1,8.4c-2.1,2.1-4.9,3.2-8.6,3.2c-3.8,0-6.7-1.1-8.7-3.2C4.8,26,3.8,23.2,3.8,19.7z M6.1,39.4h18.8v80.7H6.1V39.4z"
			/>
		<path class="st2" d="M66,120.3c-8.9,0-16.3-1.7-22.2-5c-5.9-3.3-10.4-8.1-13.7-14.4l17.3-7.8c1.9,3.5,4.6,6.3,7.9,8.2
			c3.3,1.9,7.2,2.8,11.6,2.8c4.6,0,8-0.9,10.3-2.8c2.3-1.8,3.5-4,3.5-6.6c0-1.4-0.5-2.5-1.6-3.4c-1.1-0.9-2.4-1.6-4.1-2.3
			c-1.7-0.7-3.7-1.2-6-1.6c-2.3-0.4-4.7-0.9-7.2-1.4c-3.5-0.7-6.9-1.5-10.3-2.5c-3.4-1-6.4-2.3-9-4c-2.7-1.7-4.8-3.9-6.5-6.6
			c-1.7-2.7-2.5-6-2.5-10.1c0-3.1,0.8-6,2.3-8.9c1.5-2.9,3.7-5.4,6.4-7.6s6.1-3.9,10-5.2c3.9-1.3,8.3-1.9,13-1.9
			c8.1,0,14.8,1.5,20.2,4.5c5.4,3,9.6,7.1,12.8,12.2l-15.9,7.5c-1.7-2.7-4-4.8-6.9-6.4c-2.9-1.6-6.3-2.4-10.2-2.4
			c-4.4,0-7.7,0.8-9.8,2.5c-2.1,1.7-3.2,3.6-3.2,5.8c0,2.5,1.6,4.4,4.7,5.5c3.1,1.1,7.7,2.3,13.8,3.5c3.3,0.6,6.6,1.4,10,2.4
			c3.4,1,6.4,2.4,9.2,4.1s5,3.9,6.7,6.6c1.7,2.7,2.6,6,2.6,10.1c0,2.7-0.6,5.6-1.9,8.5c-1.3,2.9-3.3,5.7-6,8.2
			c-2.7,2.5-6.1,4.5-10.3,6.1C76.8,119.5,71.8,120.3,66,120.3z"/>
		<path class="st2" d="M146.5,120.3c-5.9,0-11.4-1.1-16.5-3.2c-5.1-2.1-9.5-5-13.3-8.6c-3.8-3.6-6.7-7.9-8.9-12.8
			c-2.2-4.9-3.2-10.2-3.2-15.8c0-5.7,1.1-11,3.2-15.9c2.2-4.9,5.1-9.2,8.9-12.9c3.8-3.7,8.2-6.6,13.3-8.6c5.1-2.1,10.6-3.1,16.5-3.1
			c4.5,0,8.8,0.6,12.8,1.8c4,1.2,7.7,2.9,11,5.1c3.3,2.2,6.2,4.7,8.7,7.7c2.5,3,4.5,6.3,6.1,9.9l-16.7,6.6c-1.8-4.1-4.7-7.5-8.5-9.9
			c-3.8-2.5-8.2-3.7-13.2-3.7c-3.4,0-6.6,0.6-9.5,1.8c-2.9,1.2-5.4,2.8-7.6,4.9c-2.2,2.1-3.8,4.5-5,7.3c-1.2,2.8-1.8,5.8-1.8,9
			c0,3.1,0.6,6.1,1.8,8.9c1.2,2.8,2.9,5.2,5,7.3c2.2,2.1,4.7,3.7,7.7,4.9c2.9,1.2,6.1,1.8,9.5,1.8c5.2,0,9.7-1.3,13.5-3.9
			c3.7-2.6,6.5-6,8.3-10.2l16.7,6.7c-1.6,3.6-3.6,6.9-6.1,10c-2.5,3.1-5.4,5.7-8.6,7.9c-3.3,2.2-6.9,3.9-11,5.1
			C155.5,119.6,151.2,120.3,146.5,120.3z"/>
	</g>
	<g>
		<path class="st3" d="M3.8,19.7c0-3.5,1.1-6.3,3.2-8.5c2.1-2.2,5-3.2,8.6-3.2c3.7,0,6.6,1.1,8.6,3.2c2.1,2.2,3.1,5,3.1,8.5
			c0,3.5-1,6.3-3.1,8.4c-2.1,2.1-4.9,3.2-8.6,3.2c-3.8,0-6.7-1.1-8.7-3.2C4.8,26,3.8,23.2,3.8,19.7z M6.1,39.4h18.8v80.7H6.1V39.4z"
			/>
		<path class="st3" d="M66,120.3c-8.9,0-16.3-1.7-22.2-5c-5.9-3.3-10.4-8.1-13.7-14.4l17.3-7.8c1.9,3.5,4.6,6.3,7.9,8.2
			c3.3,1.9,7.2,2.8,11.6,2.8c4.6,0,8-0.9,10.3-2.8c2.3-1.8,3.5-4,3.5-6.6c0-1.4-0.5-2.5-1.6-3.4c-1.1-0.9-2.4-1.6-4.1-2.3
			c-1.7-0.7-3.7-1.2-6-1.6c-2.3-0.4-4.7-0.9-7.2-1.4c-3.5-0.7-6.9-1.5-10.3-2.5c-3.4-1-6.4-2.3-9-4c-2.7-1.7-4.8-3.9-6.5-6.6
			c-1.7-2.7-2.5-6-2.5-10.1c0-3.1,0.8-6,2.3-8.9c1.5-2.9,3.7-5.4,6.4-7.6s6.1-3.9,10-5.2c3.9-1.3,8.3-1.9,13-1.9
			c8.1,0,14.8,1.5,20.2,4.5c5.4,3,9.6,7.1,12.8,12.2l-15.9,7.5c-1.7-2.7-4-4.8-6.9-6.4c-2.9-1.6-6.3-2.4-10.2-2.4
			c-4.4,0-7.7,0.8-9.8,2.5c-2.1,1.7-3.2,3.6-3.2,5.8c0,2.5,1.6,4.4,4.7,5.5c3.1,1.1,7.7,2.3,13.8,3.5c3.3,0.6,6.6,1.4,10,2.4
			c3.4,1,6.4,2.4,9.2,4.1s5,3.9,6.7,6.6c1.7,2.7,2.6,6,2.6,10.1c0,2.7-0.6,5.6-1.9,8.5c-1.3,2.9-3.3,5.7-6,8.2
			c-2.7,2.5-6.1,4.5-10.3,6.1C76.8,119.5,71.8,120.3,66,120.3z"/>
		<path class="st3" d="M146.5,120.3c-5.9,0-11.4-1.1-16.5-3.2c-5.1-2.1-9.5-5-13.3-8.6c-3.8-3.6-6.7-7.9-8.9-12.8
			c-2.2-4.9-3.2-10.2-3.2-15.8c0-5.7,1.1-11,3.2-15.9c2.2-4.9,5.1-9.2,8.9-12.9c3.8-3.7,8.2-6.6,13.3-8.6c5.1-2.1,10.6-3.1,16.5-3.1
			c4.5,0,8.8,0.6,12.8,1.8c4,1.2,7.7,2.9,11,5.1c3.3,2.2,6.2,4.7,8.7,7.7c2.5,3,4.5,6.3,6.1,9.9l-16.7,6.6c-1.8-4.1-4.7-7.5-8.5-9.9
			c-3.8-2.5-8.2-3.7-13.2-3.7c-3.4,0-6.6,0.6-9.5,1.8c-2.9,1.2-5.4,2.8-7.6,4.9c-2.2,2.1-3.8,4.5-5,7.3c-1.2,2.8-1.8,5.8-1.8,9
			c0,3.1,0.6,6.1,1.8,8.9c1.2,2.8,2.9,5.2,5,7.3c2.2,2.1,4.7,3.7,7.7,4.9c2.9,1.2,6.1,1.8,9.5,1.8c5.2,0,9.7-1.3,13.5-3.9
			c3.7-2.6,6.5-6,8.3-10.2l16.7,6.7c-1.6,3.6-3.6,6.9-6.1,10c-2.5,3.1-5.4,5.7-8.6,7.9c-3.3,2.2-6.9,3.9-11,5.1
			C155.5,119.6,151.2,120.3,146.5,120.3z"/>
	</g>
</g>
</svg>
